<mxfile host="app.diagrams.net" agent="Mozilla/5.0 (Windows NT 10.0; Win64; x64) AppleWebKit/537.36 (KHTML, like Gecko) Chrome/131.0.0.0 Safari/537.36 Edg/131.0.0.0" version="24.8.6">
  <diagram name="第 1 页" id="jG8BQiRutoGen5AwH5qS">
    <mxGraphModel dx="1573" dy="465" grid="1" gridSize="10" guides="1" tooltips="1" connect="1" arrows="1" fold="1" page="1" pageScale="1" pageWidth="827" pageHeight="1169" math="0" shadow="0">
      <root>
        <mxCell id="0" />
        <mxCell id="1" parent="0" />
        <mxCell id="6CNTxtKraFy05i8eEUs7-15" style="edgeStyle=orthogonalEdgeStyle;rounded=0;orthogonalLoop=1;jettySize=auto;html=1;exitX=0.5;exitY=1;exitDx=0;exitDy=0;entryX=0.5;entryY=0;entryDx=0;entryDy=0;" edge="1" parent="1" source="6CNTxtKraFy05i8eEUs7-1" target="6CNTxtKraFy05i8eEUs7-2">
          <mxGeometry relative="1" as="geometry" />
        </mxCell>
        <mxCell id="6CNTxtKraFy05i8eEUs7-1" value="I区" style="rounded=0;whiteSpace=wrap;html=1;" vertex="1" parent="1">
          <mxGeometry x="-120" y="30" width="760" height="50" as="geometry" />
        </mxCell>
        <mxCell id="6CNTxtKraFy05i8eEUs7-2" value="test" style="rounded=0;whiteSpace=wrap;html=1;" vertex="1" parent="1">
          <mxGeometry x="-120" y="120" width="120" height="60" as="geometry" />
        </mxCell>
        <mxCell id="6CNTxtKraFy05i8eEUs7-3" value="pre" style="rounded=0;whiteSpace=wrap;html=1;" vertex="1" parent="1">
          <mxGeometry x="230" y="130" width="120" height="60" as="geometry" />
        </mxCell>
        <mxCell id="6CNTxtKraFy05i8eEUs7-4" value="prd" style="rounded=0;whiteSpace=wrap;html=1;" vertex="1" parent="1">
          <mxGeometry x="520" y="130" width="120" height="60" as="geometry" />
        </mxCell>
        <mxCell id="6CNTxtKraFy05i8eEUs7-5" value="pub" style="rounded=0;whiteSpace=wrap;html=1;" vertex="1" parent="1">
          <mxGeometry x="370" y="130" width="120" height="60" as="geometry" />
        </mxCell>
        <mxCell id="6CNTxtKraFy05i8eEUs7-9" value="ecs" style="rounded=0;whiteSpace=wrap;html=1;" vertex="1" parent="1">
          <mxGeometry x="-180" y="210" width="90" height="40" as="geometry" />
        </mxCell>
        <mxCell id="6CNTxtKraFy05i8eEUs7-10" value="slb" style="rounded=0;whiteSpace=wrap;html=1;" vertex="1" parent="1">
          <mxGeometry x="-180" y="280" width="90" height="40" as="geometry" />
        </mxCell>
        <mxCell id="6CNTxtKraFy05i8eEUs7-11" value="rds" style="rounded=0;whiteSpace=wrap;html=1;" vertex="1" parent="1">
          <mxGeometry x="-180" y="400" width="90" height="40" as="geometry" />
        </mxCell>
        <mxCell id="6CNTxtKraFy05i8eEUs7-12" value="CEN-TR" style="rounded=0;whiteSpace=wrap;html=1;" vertex="1" parent="1">
          <mxGeometry x="-180" y="340" width="90" height="40" as="geometry" />
        </mxCell>
        <mxCell id="6CNTxtKraFy05i8eEUs7-16" value="&lt;br&gt;&lt;table border=&quot;0&quot; cellpadding=&quot;0&quot; cellspacing=&quot;0&quot; width=&quot;315&quot; height=&quot;28&quot; style=&quot;border-collapse:collapse;width:157.53pt;&quot;&gt; &lt;colgroup&gt;&lt;col width=&quot;315&quot; style=&quot;width:157.50pt;&quot;&gt;&lt;/colgroup&gt; &lt;tbody&gt;&lt;tr height=&quot;28&quot; style=&quot;height:14.00pt;&quot;&gt;  &lt;td height=&quot;28&quot; width=&quot;315&quot; style=&quot;height:14.00pt;width:157.50pt;&quot;&gt;vpc-prd-ecs_I区&lt;/td&gt; &lt;/tr&gt;&lt;/tbody&gt;&lt;/table&gt;" style="text;whiteSpace=wrap;html=1;" vertex="1" parent="1">
          <mxGeometry x="-80" y="220" width="240" height="30" as="geometry" />
        </mxCell>
      </root>
    </mxGraphModel>
  </diagram>
</mxfile>
